<?xml version="1.0" encoding="UTF-8"?>
<svg width="64px" height="64px" viewBox="0 0 64 64" version="1.1" xmlns="http://www.w3.org/2000/svg" xmlns:xlink="http://www.w3.org/1999/xlink">
    <!-- Generator: Sketch 48.2 (47327) - http://www.bohemiancoding.com/sketch -->
    <title>logo</title>
    <desc>Created with Sketch.</desc>
    <defs>
        <circle id="path-1" cx="32" cy="32" r="32"></circle>
    </defs>
    <g id="Desktop-HD-Copy-6" stroke="none" stroke-width="1" fill="none" fill-rule="evenodd" transform="translate(-120.000000, -120.000000)">
        <g id="logo" transform="translate(120.000000, 120.000000)">
            <g id="Oval-2-Copy">
                <use fill="#333333" xlink:href="#path-1"></use>
                <use fill="#263A4D" xlink:href="#path-1"></use>
            </g>
            <path d="M39.0596272,34.0172818 L39.0596272,29.4318838 C43.9339584,29.859295 47.7571205,33.9516466 47.7571205,38.9369455 L47.7571205,39.6976159 C47.7571205,45.8429327 42.9678014,50.9235382 36.8332031,51.2859488 C34.44221,51.4272244 32.3453872,51.3354572 30.5346296,51.0002445 C26.612252,50.2741225 23.0576658,48.3277105 19.9070165,45.2104329 C19.013638,44.3265171 19.005967,42.8857354 19.8898828,41.992357 C20.7737986,41.0989785 22.2145802,41.0913075 23.1079587,41.9752233 C25.6303662,44.4709135 28.3700211,45.9710872 31.3630686,46.5251689 C32.7812336,46.7877037 34.5178486,46.8637065 36.5647845,46.7427601 C40.2943361,46.5224312 43.2060094,43.4336699 43.2060094,39.6976159 L43.2060094,38.9369455 C43.2060094,36.468415 41.4138262,34.4184713 39.0596272,34.0172818 Z M33.5876135,22.1605637 C33.2225023,22.1000323 32.8473682,22.0685151 32.4649237,22.0685151 C31.0742762,22.0685151 29.7802866,22.4852354 28.7133711,23.1983364 C29.1654526,18.1759293 33.3862657,14.2400024 38.5263638,14.2400024 L39.2386224,14.2400024 C41.4044127,14.2400024 43.5707531,15.3119473 45.7877045,17.3123998 C46.7207547,18.1543319 46.7946205,19.5932393 45.9526884,20.5262894 C45.1107563,21.4593396 43.6718489,21.5332054 42.7387988,20.6912733 C41.2819421,19.3766877 40.0985297,18.7911136 39.2386224,18.7911136 L38.5263638,18.7911136 C36.280067,18.7911136 34.3600399,20.1880406 33.5876135,22.1605637 Z M27.6168668,24.1181132 C26.7490081,25.0252433 26.1504306,26.1776253 25.946868,27.4592403 C25.8376759,27.4192335 25.7198538,27.3974179 25.596989,27.3974179 C25.0301951,27.3974179 24.5707178,27.8616796 24.5707178,28.4343754 L24.5707178,34.1318532 C24.5707178,36.8144611 22.4184456,38.9891445 19.7634832,38.9891445 L19.4072346,38.9891445 C16.7522722,38.9891445 14.6,36.8144611 14.6,34.1318532 L14.6,25.880454 C14.6,24.8486818 15.427797,24.0122651 16.4489364,24.0122651 C17.4700758,24.0122651 18.2978728,24.8486818 18.2978728,25.880454 L18.2978728,34.1318532 C18.2978728,34.7509166 18.794551,35.2527666 19.4072346,35.2527666 L19.7634832,35.2527666 C20.3761668,35.2527666 20.872845,34.7509166 20.872845,34.1318532 L20.872845,28.4343754 C20.872845,25.798135 22.9879163,23.6610399 25.596989,23.6610399 C26.3196648,23.6610399 27.0044403,23.8250002 27.6168668,24.1181132 Z M31.3782524,37.1209555 C31.3782524,38.1527278 30.5017363,38.9891445 29.4204988,38.9891445 C28.3392613,38.9891445 27.4627451,38.1527278 27.4627451,37.1209555 L27.4627451,28.4343754 C27.4627451,25.798135 29.7022968,23.6610399 32.4649237,23.6610399 C35.2275507,23.6610399 37.4671024,25.798135 37.4671024,28.4343754 L37.4671024,37.1209555 C37.4671024,38.1527278 36.5905862,38.9891445 35.5093487,38.9891445 C34.4281112,38.9891445 33.5515951,38.1527278 33.5515951,37.1209555 L33.5515951,28.4343754 C33.5515951,27.8616796 33.0650757,27.3974179 32.4649237,27.3974179 C31.8647718,27.3974179 31.3782524,27.8616796 31.3782524,28.4343754 L31.3782524,37.1209555 Z" id="Combined-Shape" fill="#FFFFFF" fill-rule="nonzero"></path>
        </g>
    </g>
</svg>