<?xml version="1.0" encoding="UTF-8"?>
<svg width="48px" height="48px" viewBox="0 0 48 48" version="1.1" xmlns="http://www.w3.org/2000/svg" xmlns:xlink="http://www.w3.org/1999/xlink">
    <!-- Generator: Sketch 48.2 (47327) - http://www.bohemiancoding.com/sketch -->
    <title>logo copy</title>
    <desc>Created with Sketch.</desc>
    <defs>
        <circle id="path-1" cx="24" cy="24" r="24"></circle>
    </defs>
    <g id="Page-1" stroke="none" stroke-width="1" fill="none" fill-rule="evenodd">
        <g id="logo-copy">
            <g id="Oval-2-Copy">
                <use fill="#333333" xlink:href="#path-1"></use>
                <use fill="#263A4D" xlink:href="#path-1"></use>
            </g>
            <path d="M29.2947204,25.5129614 L29.2947204,22.0739129 C32.9504688,22.3944713 35.8178404,25.4637349 35.8178404,29.2027091 L35.8178404,29.7732119 C35.8178404,34.3821995 32.225851,38.1926537 27.6249023,38.4644616 C25.8316575,38.5704183 24.2590404,38.5015929 22.9009722,38.2501833 C19.959189,37.7055919 17.2932493,36.2457829 14.9302624,33.9078247 C14.2602285,33.2448878 14.2544752,32.1643016 14.9174121,31.4942677 C15.5803489,30.8242339 16.6609352,30.8184806 17.330969,31.4814175 C19.2227747,33.3531851 21.2775158,34.4783154 23.5223014,34.8938767 C24.5859252,35.0907778 25.8883864,35.1477799 27.4235884,35.05707 C30.2207521,34.8918234 32.4045071,32.5752524 32.4045071,29.7732119 L32.4045071,29.2027091 C32.4045071,27.3513112 31.0603697,25.8138535 29.2947204,25.5129614 Z M25.1907101,16.6204227 C24.9168768,16.5750242 24.6355262,16.5513863 24.3486928,16.5513863 C23.3057072,16.5513863 22.3352149,16.8639266 21.5350283,17.3987523 C21.8740894,13.631947 25.0396993,10.6800018 28.8947729,10.6800018 L29.4289668,10.6800018 C31.0533095,10.6800018 32.6780648,11.4839605 34.3407784,12.9842999 C35.040566,13.6157489 35.0959653,14.6949295 34.4645163,15.3947171 C33.8330672,16.0945047 32.7538867,16.1499041 32.0540991,15.518455 C30.9614566,14.5325158 30.0738973,14.0933352 29.4289668,14.0933352 L28.8947729,14.0933352 C27.2100502,14.0933352 25.7700299,15.1410304 25.1907101,16.6204227 Z M20.7126501,18.0885849 C20.0617561,18.7689325 19.6128229,19.633219 19.460151,20.5944302 C19.3782569,20.5644251 19.2898904,20.5480634 19.1977417,20.5480634 C18.7726463,20.5480634 18.4280384,20.8962597 18.4280384,21.3257815 L18.4280384,25.5988899 C18.4280384,27.6108458 16.8138342,29.2418584 14.8226124,29.2418584 L14.5554259,29.2418584 C12.5642042,29.2418584 10.95,27.6108458 10.95,25.5988899 L10.95,19.4103405 C10.95,18.6365113 11.5708478,18.0091988 12.3367023,18.0091988 C13.1025568,18.0091988 13.7234046,18.6365113 13.7234046,19.4103405 L13.7234046,25.5988899 C13.7234046,26.0631874 14.0959132,26.4395749 14.5554259,26.4395749 L14.8226124,26.4395749 C15.2821251,26.4395749 15.6546338,26.0631874 15.6546338,25.5988899 L15.6546338,21.3257815 C15.6546338,19.3486013 17.2409372,17.7457799 19.1977417,17.7457799 C19.7397486,17.7457799 20.2533303,17.8687501 20.7126501,18.0885849 Z M23.5336893,27.8407167 C23.5336893,28.6145459 22.8763022,29.2418584 22.0653741,29.2418584 C21.254446,29.2418584 20.5970588,28.6145459 20.5970588,27.8407167 L20.5970588,21.3257815 C20.5970588,19.3486013 22.2767226,17.7457799 24.3486928,17.7457799 C26.420663,17.7457799 28.1003268,19.3486013 28.1003268,21.3257815 L28.1003268,27.8407167 C28.1003268,28.6145459 27.4429397,29.2418584 26.6320115,29.2418584 C25.8210834,29.2418584 25.1636963,28.6145459 25.1636963,27.8407167 L25.1636963,21.3257815 C25.1636963,20.8962597 24.7988068,20.5480634 24.3486928,20.5480634 C23.8985788,20.5480634 23.5336893,20.8962597 23.5336893,21.3257815 L23.5336893,27.8407167 Z" id="Combined-Shape" fill="#FFFFFF" fill-rule="nonzero"></path>
        </g>
    </g>
</svg>